<?xml version="1.0" standalone="no"?>
<!DOCTYPE svg PUBLIC "-//W3C//DTD SVG 20010904//EN"
 "http://www.w3.org/TR/2001/REC-SVG-20010904/DTD/svg10.dtd">
<svg version="1.0" xmlns="http://www.w3.org/2000/svg"
 width="260.000000pt" height="260.000000pt" viewBox="0 0 260.000000 260.000000"
 preserveAspectRatio="xMidYMid meet">
<metadata>
Created by potrace 1.14, written by Peter Selinger 2001-2017
</metadata>
<g transform="translate(0.000000,260.000000) scale(0.100000,-0.100000)"
fill="#000000" stroke="none">
<path d="M0 1300 l0 -1300 1300 0 1300 0 0 1300 0 1300 -1300 0 -1300 0 0
-1300z m1375 821 c126 -74 851 -569 869 -593 24 -34 26 -107 2 -142 -9 -15
-39 -41 -66 -59 -27 -17 -50 -35 -50 -38 0 -3 25 -23 55 -43 71 -49 94 -103
74 -168 -14 -42 -22 -49 -467 -345 -415 -278 -456 -303 -495 -303 -39 0 -79
24 -485 295 -315 211 -448 305 -462 328 -42 68 -18 138 66 194 l57 38 -29 20
c-73 52 -105 90 -111 130 -12 91 -18 85 477 415 359 239 457 300 483 300 17 0
55 -13 82 -29z"/>
<path d="M873 1746 c-232 -154 -423 -284 -423 -287 0 -3 31 -27 69 -52 l69
-46 327 221 c276 186 335 222 372 226 43 5 48 2 376 -217 183 -121 338 -221
345 -221 13 0 142 78 142 86 0 3 -815 549 -845 566 -5 3 -200 -121 -432 -276z"/>
<path d="M996 1488 c-164 -110 -294 -203 -290 -208 15 -13 583 -390 589 -390
9 0 595 393 595 399 0 5 -475 324 -569 382 l-26 17 -299 -200z"/>
<path d="M513 1167 c-35 -23 -63 -45 -63 -48 0 -3 191 -133 423 -288 l424
-282 419 277 c230 152 423 280 428 284 4 5 -24 30 -63 55 l-70 48 -173 -114
c-95 -62 -254 -167 -353 -233 -99 -65 -184 -119 -190 -119 -6 0 -166 104 -358
231 -191 128 -350 232 -354 231 -5 0 -36 -19 -70 -42z"/>
</g>
</svg>
