<svg width="19" height="19" fill="none" xmlns="http://www.w3.org/2000/svg"><path d="M3.102 4.847a1.551 1.551 0 0 1 1.551-1.551H6.98a1.551 1.551 0 0 1 1.55 1.55v2.327a1.551 1.551 0 0 1-1.55 1.551H4.653a1.551 1.551 0 0 1-1.551-1.55V4.846Zm3.878 0H4.653v2.326H6.98V4.847Zm-2.327 5.428a1.55 1.55 0 0 0-1.551 1.551v2.327a1.551 1.551 0 0 0 1.551 1.551H6.98a1.551 1.551 0 0 0 1.55-1.551v-2.327a1.55 1.55 0 0 0-1.55-1.55H4.653Zm0 1.551H6.98v2.327H4.653v-2.327Zm5.429-6.98a1.55 1.55 0 0 1 1.55-1.55h2.327a1.551 1.551 0 0 1 1.551 1.55v2.327a1.55 1.55 0 0 1-1.55 1.551h-2.327a1.551 1.551 0 0 1-1.551-1.55V4.846Zm3.877 0h-2.326v2.327h2.326V4.847Zm-2.326 5.43a1.551 1.551 0 0 0-1.551 1.55v2.327a1.551 1.551 0 0 0 1.55 1.551h2.327a1.551 1.551 0 0 0 1.551-1.551v-2.327a1.55 1.55 0 0 0-1.55-1.55h-2.327Zm0 1.55h2.326v2.327h-2.326v-2.327ZM0 4.071A3.878 3.878 0 0 1 3.878.194h10.857a3.877 3.877 0 0 1 3.877 3.877v10.857a3.878 3.878 0 0 1-3.877 3.878H3.878A3.877 3.877 0 0 1 0 14.928V4.072Zm3.878-2.326A2.327 2.327 0 0 0 1.55 4.07v10.857a2.326 2.326 0 0 0 2.327 2.327h10.857a2.326 2.326 0 0 0 2.326-2.326V4.07a2.327 2.327 0 0 0-2.326-2.326H3.878Z" fill="#fff"/></svg>