<svg width="39" height="29" fill="none" xmlns="http://www.w3.org/2000/svg"><path d="M33.475 2.391a2.391 2.391 0 0 1 2.39 2.391V23.91a2.391 2.391 0 0 1-2.39 2.392H4.782a2.391 2.391 0 0 1-2.391-2.392V4.782a2.391 2.391 0 0 1 2.391-2.391h28.693ZM4.782 0A4.782 4.782 0 0 0 0 4.782V23.91a4.782 4.782 0 0 0 4.782 4.783h28.693a4.782 4.782 0 0 0 4.782-4.783V4.782A4.782 4.782 0 0 0 33.475 0H4.782Z" fill="#129FF7"/><path d="M4.782 8.369a1.195 1.195 0 0 1 1.196-1.196h4.782a1.195 1.195 0 0 1 1.195 1.196v2.39a1.196 1.196 0 0 1-1.195 1.196H5.978a1.196 1.196 0 0 1-1.196-1.195V8.369Zm0 7.173a1.195 1.195 0 0 1 1.196-1.196h11.955a1.196 1.196 0 0 1 0 2.391H5.978a1.196 1.196 0 0 1-1.196-1.195Zm0 4.782a1.195 1.195 0 0 1 1.196-1.196h2.39a1.196 1.196 0 0 1 0 2.392h-2.39a1.196 1.196 0 0 1-1.196-1.196Zm7.173 0a1.195 1.195 0 0 1 1.196-1.196h2.391a1.196 1.196 0 0 1 0 2.392h-2.391a1.196 1.196 0 0 1-1.196-1.196Zm7.173 0a1.196 1.196 0 0 1 1.196-1.196h2.391a1.196 1.196 0 0 1 0 2.392h-2.39a1.196 1.196 0 0 1-1.197-1.196Zm7.174 0a1.196 1.196 0 0 1 1.195-1.196h2.391a1.195 1.195 0 0 1 0 2.392h-2.39a1.196 1.196 0 0 1-1.196-1.196Z" fill="#129FF7"/></svg>