<svg width="16" height="17" fill="none" xmlns="http://www.w3.org/2000/svg"><path d="M15.28 13.873a7.992 7.992 0 0 0-1.705-2.552A7.94 7.94 0 0 0 11.048 9.6l-.026-.01a5.301 5.301 0 0 0 2.174-4.294C13.196 2.371 10.85 0 7.952 0 5.054 0 2.707 2.37 2.707 5.296c0 1.767.856 3.332 2.174 4.295l-.025.011a7.871 7.871 0 0 0-2.528 1.721 8.026 8.026 0 0 0-1.704 2.553A8.005 8.005 0 0 0 0 16.825a.173.173 0 0 0 .103.162c.021.009.044.013.066.013h1.27a.17.17 0 0 0 .168-.167 6.398 6.398 0 0 1 1.857-4.363 6.271 6.271 0 0 1 4.488-1.877c1.696 0 3.288.666 4.487 1.877a6.398 6.398 0 0 1 1.857 4.363.168.168 0 0 0 .17.167h1.268a.167.167 0 0 0 .121-.052.17.17 0 0 0 .048-.123 8.025 8.025 0 0 0-.624-2.952ZM7.951 8.97c-.971 0-1.885-.382-2.572-1.077a3.668 3.668 0 0 1-1.066-2.597c0-.98.379-1.902 1.066-2.597a3.596 3.596 0 0 1 2.572-1.076c.97 0 1.884.382 2.571 1.077a3.668 3.668 0 0 1 1.066 2.596c0 .98-.379 1.903-1.066 2.597A3.596 3.596 0 0 1 7.952 8.97Z" fill="#fff"/></svg>