<svg width="19" height="23" fill="none" xmlns="http://www.w3.org/2000/svg"><path d="M9 10.516 8 3.244c0-.466.185-.913.515-1.243 1.024-1.024 2.777-.44 2.982.994L13 9.515l1.508-6.327a1.682 1.682 0 0 1 3.276.73L16 15.516" stroke="#fff" stroke-width="2" stroke-linecap="round" stroke-linejoin="round"/><path d="M16 15.516c-.536 4-3.358 6-7.5 6-4.142 0-7.5-2-7.5-6" stroke="#fff" stroke-width="2"/><path d="M9 12.516v-2a2 2 0 1 0-4 0v4m-4 1v-4a2 2 0 0 1 4 0l-4 4Z" stroke="#fff" stroke-width="2" stroke-linecap="round" stroke-linejoin="round"/><path d="M10.692 16.516H8a2 2 0 1 1 0-4h4c2.21 0 4.5 2 3.5 5" stroke="#fff" stroke-width="2" stroke-linecap="round" stroke-linejoin="round"/></svg>