<svg width="20" height="23" fill="none" xmlns="http://www.w3.org/2000/svg"><path d="M4.125 15.625a1.375 1.375 0 0 1 2.75 0V17a1.375 1.375 0 0 1-2.75 0v-1.375Zm8.25-5.5a1.375 1.375 0 0 1 2.75 0V17a1.375 1.375 0 0 1-2.75 0v-6.875Zm-4.125 2.75a1.375 1.375 0 0 1 2.75 0V17a1.375 1.375 0 0 1-2.75 0v-4.125Z" fill="#fff"/><path d="M4.125 2.563H2.75A2.75 2.75 0 0 0 0 5.313V19.75a2.75 2.75 0 0 0 2.75 2.75H16.5a2.75 2.75 0 0 0 2.75-2.75V5.312a2.75 2.75 0 0 0-2.75-2.75h-1.375v1.376H16.5a1.375 1.375 0 0 1 1.375 1.374V19.75a1.375 1.375 0 0 1-1.375 1.375H2.75a1.375 1.375 0 0 1-1.375-1.375V5.312A1.375 1.375 0 0 1 2.75 3.938h1.375V2.563Z" fill="#fff"/><path d="M11.688 1.875a.687.687 0 0 1 .687.688v1.374a.687.687 0 0 1-.688.688H7.564a.688.688 0 0 1-.688-.688V2.563a.688.688 0 0 1 .688-.688h4.125ZM7.561.5A2.063 2.063 0 0 0 5.5 2.563v1.374A2.063 2.063 0 0 0 7.563 6h4.125a2.063 2.063 0 0 0 2.062-2.063V2.563A2.062 2.062 0 0 0 11.687.5H7.564Z" fill="#fff"/></svg>