<svg width="38" height="48" fill="none" xmlns="http://www.w3.org/2000/svg"><path d="M32.489 12.488c0-.242-.038-.481-.111-.705a1.929 1.929 0 0 0-.317-.598 1.489 1.489 0 0 0-.473-.399 1.2 1.2 0 0 0-.558-.14H6.97a1.2 1.2 0 0 0-.558.14 1.49 1.49 0 0 0-.473.4 1.933 1.933 0 0 0-.316.597 2.27 2.27 0 0 0-.111.705v23.024c0 .489.153.957.427 1.303.273.345.644.539 1.031.539h24.06c.387 0 .758-.194 1.031-.54.274-.345.428-.813.428-1.302V12.488Z" stroke="url(#a)" stroke-linecap="round" stroke-linejoin="round"/><path d="M10.25 31.828H19m11.13-21.182-.46-2.176c-.1-.472-.345-.874-.68-1.118a1.197 1.197 0 0 0-1.106-.184l-10.276 3.478h12.523Zm2.358 22.614.868-.294c.185-.063.358-.17.51-.318.152-.147.28-.33.376-.54.095-.21.158-.44.183-.68.025-.24.012-.484-.038-.718l-1.9-8.953.001 11.503ZM7.87 37.354l.46 2.175c.05.234.136.453.252.645.117.192.262.353.428.474.166.12.349.2.539.23.19.033.383.017.568-.046l10.276-3.478H7.869ZM5.511 14.74l-.867.294c-.185.063-.359.17-.51.318a1.78 1.78 0 0 0-.376.54c-.096.21-.158.44-.183.68-.025.24-.012.484.037.718l1.911 9.008-.012-11.558Zm4.74 1.432h17.498H10.25Zm0 5.219h17.498H10.25Zm0 5.218h17.498H10.25Z" stroke="url(#b)" stroke-linecap="round" stroke-linejoin="round"/><defs><linearGradient id="a" x1="19" y1="10.646" x2="19" y2="37.354" gradientUnits="userSpaceOnUse"><stop stop-color="#129FF7"/><stop offset="1" stop-color="#4E76C4"/></linearGradient><linearGradient id="b" x1="19" y1="7.105" x2="19" y2="40.895" gradientUnits="userSpaceOnUse"><stop stop-color="#129FF7"/><stop offset="1" stop-color="#4E76C4"/></linearGradient></defs></svg>