<svg width="39" height="37" fill="none" xmlns="http://www.w3.org/2000/svg"><path d="m2.962.2 34.861 16.458c.352.166.65.427.858.753a2.022 2.022 0 0 1 0 2.178 2.06 2.06 0 0 1-.858.753L2.962 36.8a2.092 2.092 0 0 1-2.218-.274 2.04 2.04 0 0 1-.649-.955 2.016 2.016 0 0 1-.022-1.15l4.4-15.921-4.4-15.922a2.016 2.016 0 0 1 .022-1.15A2.04 2.04 0 0 1 .744.475 2.092 2.092 0 0 1 2.962.2Zm-.257 2.595 4.01 14.514 18.103.002c.3 0 .59.108.816.302.226.195.373.464.414.758l.011.165c0 .296-.108.582-.306.805-.197.223-.469.368-.766.408l-.169.012H6.694L2.707 34.205 35.973 18.5 2.705 2.795Z" fill="#129FF7"/></svg>