<svg width="23" height="25" fill="none" xmlns="http://www.w3.org/2000/svg"><path d="M.06 6.313V5.027c0-.924.2-1.765.602-2.522.4-.757.985-1.364 1.753-1.82C3.195.228 4.141 0 5.255 0 6.39 0 7.341.228 8.11.685c.78.456 1.364 1.063 1.753 1.82.401.757.602 1.598.602 2.522v1.286c0 .901-.2 1.73-.602 2.488a4.472 4.472 0 0 1-1.736 1.82c-.769.457-1.715.685-2.84.685-1.124 0-2.076-.228-2.855-.685-.78-.456-1.37-1.063-1.77-1.82A5.235 5.235 0 0 1 .06 6.313Zm2.99-1.286v1.286c0 .423.078.824.234 1.202.167.367.417.668.751.902.334.234.752.35 1.253.35.5 0 .907-.116 1.219-.35.323-.234.562-.535.718-.902.167-.378.25-.78.25-1.202V5.027c0-.434-.083-.84-.25-1.22a2.052 2.052 0 0 0-.735-.918c-.323-.234-.735-.35-1.236-.35-.49 0-.902.116-1.236.35-.322.234-.567.54-.734.919a3.17 3.17 0 0 0-.234 1.219Zm8.684 14.963v-1.286c0-.913.2-1.748.601-2.505a4.675 4.675 0 0 1 1.787-1.82c.78-.457 1.72-.685 2.822-.685 1.147 0 2.105.228 2.873.685a4.472 4.472 0 0 1 1.736 1.82c.401.757.602 1.592.602 2.505v1.286c0 .913-.2 1.748-.602 2.505a4.472 4.472 0 0 1-1.736 1.82c-.757.457-1.698.685-2.823.685-1.124 0-2.082-.228-2.872-.685a4.676 4.676 0 0 1-1.787-1.82 5.27 5.27 0 0 1-.601-2.505Zm3.006-1.286v1.286c0 .434.089.84.267 1.22.178.366.434.667.768.9.345.235.746.352 1.203.352.556 0 .996-.117 1.319-.351.323-.234.551-.535.685-.902.133-.378.2-.785.2-1.219v-1.286c0-.434-.083-.835-.25-1.202a2.166 2.166 0 0 0-.752-.919c-.323-.234-.735-.35-1.236-.35-.49 0-.901.116-1.235.35-.323.234-.568.54-.735.919a3.046 3.046 0 0 0-.234 1.202Zm3.307-14.88L6.173 22.83l-2.188-1.22L15.86 2.606l2.188 1.22Z" fill="url(#a)" fill-opacity=".9"/><defs><linearGradient id="a" x1="11.108" y1="0" x2="11.108" y2="25" gradientUnits="userSpaceOnUse"><stop stop-color="#129FF7"/><stop offset="1" stop-color="#4E76C4"/></linearGradient></defs></svg>