<svg width="24" height="24" fill="none" xmlns="http://www.w3.org/2000/svg"><path d="M17.132 23.234a2.247 2.247 0 0 0 1.607-.663l3.044-3.044a1.123 1.123 0 0 0 0-1.584L17.29 13.45a1.123 1.123 0 0 0-1.584 0l-1.797 1.786a8.481 8.481 0 0 1-3.37-1.786 8.56 8.56 0 0 1-1.786-3.37l1.786-1.797a1.123 1.123 0 0 0 0-1.584L6.046 2.206a1.123 1.123 0 0 0-1.584 0L1.429 5.261a2.247 2.247 0 0 0-.663 1.607 17.164 17.164 0 0 0 4.83 11.536 17.164 17.164 0 0 0 11.536 4.83ZM5.26 4.599l2.91 2.909-1.45 1.45a1.123 1.123 0 0 0-.336 1.021 11.368 11.368 0 0 0 2.583 5.055 11.323 11.323 0 0 0 5.055 2.584 1.124 1.124 0 0 0 1.022-.304l1.45-1.482L19.4 18.74l-2.246 2.247A14.917 14.917 0 0 1 7.19 16.82a14.917 14.917 0 0 1-4.178-9.975L5.259 4.6Zm15.726 6.279h2.247A9.894 9.894 0 0 0 13.122.768v2.247a7.605 7.605 0 0 1 7.863 7.863Z" fill="#fff"/><path d="M13.07 7.4c2.471 0 3.53 1.059 3.53 3.53h2.354c0-3.79-2.095-5.884-5.884-5.884v2.353Z" fill="#fff"/></svg>