<svg width="18" height="23" fill="none" xmlns="http://www.w3.org/2000/svg"><path d="M17.245 3.319 9.162.55a1.164 1.164 0 0 0-.36-.05c-.13 0-.261.017-.359.05L.36 3.32A.573.573 0 0 0 0 3.826V15.36a.9.9 0 0 0 .3.62l8.2 6.422a.49.49 0 0 0 .3.098c.11 0 .219-.034.3-.098l8.2-6.422a.89.89 0 0 0 .3-.62V3.826a.563.563 0 0 0-.355-.507Zm-1.353 11.582-7.09 5.552-7.09-5.552V4.677l7.09-2.43 7.09 2.43v10.224Zm-9.654-4.806a.382.382 0 0 0-.31-.158H4.615a.192.192 0 0 0-.154.304l3.007 4.16a.384.384 0 0 0 .482.117.385.385 0 0 0 .136-.117l5.058-6.998a.192.192 0 0 0-.155-.304h-1.313a.386.386 0 0 0-.31.158l-3.589 4.969-1.54-2.13Z" fill="#fff"/></svg>