<svg width="35" height="44" fill="none" xmlns="http://www.w3.org/2000/svg"><path d="M29.855 19.543c-.203-.733-.755-1.21-1.408-1.21H18.012c-.668 0-1.205.477-1.423 1.21l-2.075 7.535.014 10.102c0 .697.45 1.32 1.002 1.32h.9c.551 0 .986-.697.986-1.393v-2.274h11.612v2.274c0 .696.45 1.393 1.001 1.393h.885c.552 0 1.002-.623 1.002-1.32l.014-2.512v-7.59l-2.075-7.535Zm-11.843.624h10.435l1.495 5.5H16.517l1.495-5.5Zm-.596 11c-.798 0-1.45-.825-1.45-1.834 0-1.008.652-1.833 1.45-1.833.799 0 1.452.825 1.452 1.833 0 1.009-.653 1.834-1.452 1.834Zm11.612 0c-.799 0-1.452-.825-1.452-1.834 0-1.008.653-1.833 1.452-1.833.798 0 1.45.825 1.45 1.833 0 1.009-.652 1.834-1.45 1.834Z" fill="url(#a)"/><path d="M20.32 16.5h1.45v-11H10.16v9.167H2.903V38.5h1.451v-22h7.257V7.333h8.709V16.5Z" fill="url(#b)"/><path d="M7.257 20.167h2.903v3.666H7.257v-3.666Zm7.257-11h2.903v3.666h-2.903V9.167ZM7.257 27.5h2.903v3.667H7.257V27.5Zm0 7.333h2.903V38.5H7.257v-3.667Z" fill="url(#c)"/><defs><linearGradient id="a" x1="23.222" y1="18.333" x2="23.222" y2="38.5" gradientUnits="userSpaceOnUse"><stop stop-color="#129FF7"/><stop offset="1" stop-color="#4E76C4"/></linearGradient><linearGradient id="b" x1="12.337" y1="5.5" x2="12.337" y2="38.5" gradientUnits="userSpaceOnUse"><stop stop-color="#129FF7"/><stop offset="1" stop-color="#4E76C4"/></linearGradient><linearGradient id="c" x1="12.337" y1="9.167" x2="12.337" y2="38.5" gradientUnits="userSpaceOnUse"><stop stop-color="#129FF7"/><stop offset="1" stop-color="#4E76C4"/></linearGradient></defs></svg>