<svg version="1.1" id="Layer_1" xmlns="http://www.w3.org/2000/svg" x="0" y="0" viewBox="0 0 189 16.4" style="enable-background:new 0 0 189 16.4" xml:space="preserve"><style>.st0{fill:#fff}</style><path class="st0" d="m178.2 0-8.4 12.4c-1.1 1.6-2.9 3.2-5.1 3.4v.4h9.4c2.5 0 4.3-1.6 5.5-3.5L188.3 0h-10.1zM22.8 16.1V1.4H27v14.8h-4.2v-.1zm98 0-10.2-8.8v8.8H107V1.4h3l10.1 8.6V1.4h3.6v14.8c0-.1-2.9-.1-2.9-.1zm22.2-10c-1.9-1-4.1-1.7-6.9-1.7-3.4 0-6 1.8-6 4.3 0 2.6 2.6 4.4 5.9 4.4 2.8 0 5-.7 7.1-2v3.7c-1.9 1-4.4 1.7-7.3 1.7-5.8 0-10.4-3-10.4-7.7 0-4.6 4.7-7.6 10.4-7.6 2.7 0 5.1.5 7.2 1.4v3.5zm-92.3 10V1.4h14.2v3.2h-10v3.7h9.7v3.2h-9.7v4.8l-4.2-.2zm94.8 0V1.4h14.7v3.2h-10.5v2.6H160v3.2h-10.3V13h10.4v3.2c.1-.1-14.6-.1-14.6-.1zm-65.9-5.5 5.9 5.5H81c-1 0-1.7-.3-2.2-.8l-4-3.9c-.1-.1-.2-.1-.3-.1h-2.7v4.9h-4.2V1.4h9.2c4.8 0 6.8 2.2 6.8 4.6-.1 2.8-2.6 4.1-4 4.6zm-3.4-2.4c1.7 0 2.5-.9 2.5-1.8s-.7-1.9-2.5-1.9h-4.5v3.6h4.5zm-33 2.4 5.9 5.5h-4.5c-1 0-1.7-.3-2.2-.8l-4-3.9c-.1-.1-.2-.1-.3-.1h-2.7v4.9H31V1.4h9.2C45 1.4 47 3.5 47 6c0 2.8-2.5 4.1-3.8 4.6zm-3.4-2.4c1.7 0 2.5-.9 2.5-1.8s-.7-1.8-2.5-1.8h-4.5v3.6h4.5zm-23.7 7.9-1.9-3.2H6.1l-1.7 3.2h-4L8.5 1.4h3.7l9.2 14.8c0-.1-5.3-.1-5.3-.1zM7.8 9.8h4.7L10 5.3S7.7 9.8 7.8 9.8zm93.2 6.3-1.8-3.2h-7.9l-1.6 3.2h-3.9l7.9-14.8h3.6l8.9 14.8H101zm-8.2-6.3h4.6L95 5.3l-2.2 4.5z"/></svg>