<svg width="190" height="31" fill="none" xmlns="http://www.w3.org/2000/svg"><path d="M50.57 22.746h-4.631V8.02h4.483v2.19a4.642 4.642 0 0 1 1.734-1.896 4.425 4.425 0 0 1 2.444-.647c2.147 0 3.586.965 4.348 2.544a5.497 5.497 0 0 1 2.048-1.919 5.271 5.271 0 0 1 2.695-.625c3.416 0 5.056 2.428 5.056 5.937v9.14h-4.621V14.39c0-1.518-.624-2.572-2.175-2.572a2.075 2.075 0 0 0-.907.136c-.29.112-.553.288-.77.516a2.231 2.231 0 0 0-.491.802 2.29 2.29 0 0 0-.122.941v8.533h-4.627V14.39c0-1.518-.623-2.572-2.178-2.572-1.44 0-2.287.928-2.287 2.544v8.384ZM87.477 15.388c0 3.978-2.852 7.72-7.908 7.72-5.057 0-7.908-3.742-7.908-7.72 0-3.978 2.856-7.72 7.908-7.72 5.052 0 7.908 3.746 7.908 7.72Zm-4.52 0c0-1.959-1.129-3.742-3.388-3.742-2.26 0-3.367 1.783-3.367 3.742s1.13 3.742 3.39 3.742c2.259 0 3.366-1.783 3.366-3.742ZM105.574 15.388c0 3.978-2.851 7.72-7.908 7.72-5.056 0-7.903-3.742-7.903-7.72 0-3.978 2.851-7.72 7.903-7.72 5.053 0 7.908 3.746 7.908 7.72Zm-4.519 0c0-1.959-1.13-3.742-3.389-3.742s-3.384 1.783-3.384 3.742 1.13 3.742 3.384 3.742c2.255 0 3.389-1.783 3.389-3.742ZM113.253 22.746h-4.631V8.02h4.483v2.19c.619-1.392 2.313-2.543 4.29-2.543 3.416 0 5.11 2.428 5.11 5.937v9.14h-4.612V14.39c0-1.518-.704-2.572-2.242-2.572-1.439 0-2.371.929-2.371 2.544l-.027 8.384ZM140.814 13.691h-4.483c-.421-1.081-1.345-2.047-3.138-2.047-2.147 0-3.277 1.695-3.277 3.742 0 2.047 1.13 3.742 3.277 3.742 1.793 0 2.712-.961 3.138-2.043h4.483c-.596 3.212-3.447 6.035-7.598 6.035-4.797 0-7.877-3.273-7.877-7.72 0-4.447 3.08-7.72 7.877-7.72 4.151-.014 7.002 2.794 7.598 6.011ZM154.675 10.212V8.02h4.546v14.725h-4.461v-2.182a5.298 5.298 0 0 1-1.966 1.908 5.07 5.07 0 0 1-2.624.636c-4.125 0-7.115-3.333-7.115-7.72s3.008-7.72 7.115-7.72c2.16 0 3.855 1.054 4.505 2.544Zm-.085 5.176c0-2.163-1.439-3.742-3.47-3.742s-3.416 1.607-3.416 3.742 1.408 3.742 3.416 3.742 3.47-1.579 3.47-3.742ZM172.18 12.668h-.941c-2.542 0-3.587 1.081-3.587 3.95v6.128h-4.617V8.02h4.483v2.924c.583-2.367 2.349-3.054 4.214-3.054h.448v4.777ZM185.369 10.211V1.414H190v21.331h-4.483v-2.182a5.297 5.297 0 0 1-1.961 1.903 5.078 5.078 0 0 1-2.616.641c-4.12 0-7.114-3.333-7.114-7.72s2.994-7.72 7.114-7.72c2.17 0 3.779 1.054 4.429 2.544Zm0 5.176c0-2.163-1.439-3.742-3.474-3.742s-3.416 1.607-3.416 3.742c0 2.136 1.412 3.742 3.416 3.742s3.474-1.579 3.474-3.742ZM33.71 16.315l-1.6-1.05 1.586-1.04c.316-.21.575-.498.755-.84a2.387 2.387 0 0 0 0-2.223c-.18-.341-.44-.63-.755-.84L18.522.355A2.185 2.185 0 0 0 17.327 0c-.423 0-.837.125-1.195.36L1.026 10.322c-.314.21-.573.499-.752.84a2.387 2.387 0 0 0 0 2.22c.179.34.438.629.752.84l1.6 1.053-1.582 1.045c-.314.21-.573.499-.752.84a2.387 2.387 0 0 0 0 2.22c.179.34.438.629.752.839l15.09 9.953a2.206 2.206 0 0 0 2.407 0l15.17-9.948a2.29 2.29 0 0 0 .757-.841 2.386 2.386 0 0 0 0-2.228c-.18-.341-.44-.63-.757-.84ZM2.16 12.383a.133.133 0 0 1-.058-.111.124.124 0 0 1 .057-.107l15.103-9.967a.118.118 0 0 1 .135 0l15.17 9.967a.11.11 0 0 1 .058.107.123.123 0 0 1-.058.11l-2.426 1.593-11.606-7.627a2.185 2.185 0 0 0-1.194-.357c-.423 0-.837.124-1.195.357L4.585 13.98l-2.426-1.597ZM17.4 8.205 28.16 15.28l-10.83 7.112-10.786-7.117 10.758-7.084a.122.122 0 0 1 .104 0l-.005.014Zm15.174 10.213L17.41 28.343a.118.118 0 0 1-.134 0L2.173 18.38a.138.138 0 0 1-.058-.112c0-.021.004-.043.015-.061a.119.119 0 0 1 .043-.045l2.412-1.593 12.74 8.407 12.816-8.416 2.439 1.602c.019.01.034.025.045.044.01.019.015.04.013.062a.128.128 0 0 1-.058.112l-.005.037Z" fill="#fff"/></svg>