<svg version="1.1" id="Calque_2" xmlns="http://www.w3.org/2000/svg" x="0" y="0" viewBox="0 0 535.3 137.6" style="enable-background:new 0 0 535.3 137.6" xml:space="preserve"><style>.st0{fill:#fff}</style><path class="st0" d="M291.4 51.6c-3.1-2.8-6-3.1-7.6-3.1-6.1 0-10.3 4.5-10.3 10.7s4.3 10.6 10.3 10.6c3.4 0 6-1.7 7.6-3.3v5.1c-2.8 1.7-5.8 2.1-7.7 2.1-5.1 0-8.3-2.3-10-3.9-3.3-3.1-4.5-6.7-4.5-10.6 0-5.2 2.1-8.8 4.5-11 2.9-2.7 6.3-3.7 10.2-3.7 2.6 0 5.1.5 7.5 2v5.1zM336.4 59.1c0 8.3-6.2 14.6-14.6 14.6s-14.6-6.3-14.6-14.6 6.2-14.6 14.6-14.6 14.6 6.4 14.6 14.6zm-4.3 0c0-6.3-4.3-10.6-10.3-10.6s-10.3 4.4-10.3 10.6 4.3 10.6 10.3 10.6 10.3-4.3 10.3-10.6zM354.4 73.2v-30l20.4 21.4V45h4.3v29.9l-20.4-21.4v19.7h-4.3zM410.7 51.3c-.3-.6-.6-1.2-1.3-1.8-.9-.7-1.8-1-3-1-2.6 0-4 1.6-4 3.4 0 .8.3 2.3 3 3.4l2.8 1.1c5.2 2.1 6.6 5.1 6.6 8.3 0 5.4-3.8 9-9.1 9-3.3 0-5.2-1.2-6.6-2.8-1.5-1.7-2.2-3.5-2.4-5.5l4.3-.9c0 1.4.5 2.7 1.2 3.6.8 1 2 1.7 3.7 1.7 2.6 0 4.6-1.9 4.6-4.7s-2.2-4-4-4.8l-2.7-1.1c-2.3-1-5.7-2.9-5.7-7.1 0-3.8 3-7.4 8.2-7.4 3 0 4.8 1.1 5.7 1.9.8.7 1.6 1.7 2.1 2.8l-3.4 1.9zM448.5 49.1h-11.2v7.1h10.9v4h-10.9v8.9h11.2v4.1H433V45h15.5v4.1zM471.1 45v28.2h-4.3V45h4.3zM494.8 45v24.1h8.3v4.1h-12.6V45h4.3zM531.1 51.3c-.3-.6-.6-1.2-1.3-1.8-.9-.7-1.8-1-3-1-2.6 0-4 1.6-4 3.4 0 .8.3 2.3 3 3.4l2.8 1.1c5.2 2.1 6.6 5.1 6.6 8.3 0 5.4-3.8 9-9.1 9-3.3 0-5.2-1.2-6.6-2.8-1.5-1.7-2.2-3.5-2.4-5.5l4.3-.9c0 1.4.5 2.7 1.2 3.6.8 1 2 1.7 3.7 1.7 2.6 0 4.6-1.9 4.6-4.7s-2.2-4-4-4.8l-2.7-1.1c-2.3-1-5.7-2.9-5.7-7.1 0-3.8 3-7.4 8.2-7.4 3 0 4.8 1.1 5.7 1.9.8.7 1.6 1.7 2.2 2.8l-3.5 1.9zM287.5 123.8h-18.9l9.8-11.8c1-1.2 2.5-3 3.4-4.4.8-1.2 1.5-2.4 1.5-4.1 0-2.4-1.6-4.6-4.7-4.6s-4.8 2.4-5 5.1h-4.1c.1-2.7 1.3-4.9 2.4-6.2 1-1.1 3-2.7 6.6-2.7 6 0 9.1 4.1 9.1 8.5 0 2.3-.9 4.2-2 5.9-1 1.5-2.3 3.1-4 5.1l-4.4 5.2h10.5l-.2 4zM335.8 95.7c1.7 0 4.1.2 6.2 1.5 2.4 1.6 3.5 4.3 3.5 6.8 0 1.7-.4 4.2-2.7 6.2-2.2 1.9-4.8 2.2-6.9 2.2H334v11.4h-4.3V95.7h6.1zm-1.9 12.7h1.9c3.7 0 5.5-1.8 5.5-4.4 0-1.6-.6-4.3-5.5-4.3h-1.9v8.7zM367.6 95.7c3.4 0 5.6.4 7.4 1.7 3.1 2.1 3.3 5.4 3.3 6.6 0 4.1-2.5 7-6.3 7.8l8.8 12h-5.2l-8.1-11.5h-.8v11.5h-4.3V95.7h5.2zm-.8 12.9h1.4c1.2 0 6-.1 6-4.6 0-4-3.8-4.3-5.9-4.3h-1.5v8.9zM425.7 109.8c0 8.3-6.2 14.6-14.6 14.6s-14.6-6.3-14.6-14.6 6.2-14.6 14.6-14.6 14.6 6.3 14.6 14.6zm-4.3 0c0-6.3-4.3-10.6-10.3-10.6s-10.3 4.4-10.3 10.6 4.3 10.6 10.3 10.6 10.3-4.4 10.3-10.6z"/><g><path class="st0" d="M154.9 57.7c-.4-2.1-.9-4.1-1.6-5.8-8.9 2.3-17.8 4.6-26.7 7.1.9 2.6.9 5.2.9 5.9 0 1-.1 1.9-.2 2.8 9.1-3.6 18.3-6.9 27.6-10zM182.6 54.7c-8.7 2.1-17.4 4.3-26.1 6.6v7.3c8.7-3.1 17.4-6 26.1-8.9v-5zM156.4 80.4c8.7-3.3 17.4-6.4 26.1-9.4v-6.2c-8.7 2.2-17.4 4.5-26.1 6.9v8.7z"/><path class="st0" d="M156.4 93.2v17.4h-32.7l16.9-15.7c3.7-3.4 6.8-6.9 9.3-10.7-5 1.5-9.9 3.1-14.9 4.7 5.3-2.2 10.6-4.4 15.9-6.5 1.9-3.2 3.2-6.6 3.9-10.4-11.2 3.1-22.4 6.5-33.6 10.1 11.2-4.7 22.6-9.1 34-13.3.1-1.3.2-2.6.2-4 0-1.2-.1-2.3-.1-3.5-9.5 2.5-19 5.1-28.4 8-.9 4.3-2.9 7.9-5 11.1-4.8 7.7-11.6 16-20.7 25.5l-20.4 21.4V99.1c-9.2 10.1-18.9 10.6-22.8 10.6-7.4 0-14.4-2.9-18.8-6.9-1.8-1.7-3.3-3.7-4.5-5.9 3.8-2.5 7.8-4.8 11.6-7C56 84.3 66 79.3 76 74.2c4.1-1.9 8.2-3.7 12.3-5.6 5.8-2.6 11.7-5.1 17.5-7.6.6-1.8 1.3-3.5 2.3-4.8 1.7-2.1 4.5-4.1 8.8-4.1 2.5 0 4.6.8 6.1 1.8.5.4.9.8 1.3 1.2.4.4.7.9 1 1.3 8.6-3.1 17.2-6.1 25.9-8.9-.8-1.3-1.5-2.5-2.3-3.6 2.5-.9 4.9-1.8 7.4-2.8V46c15.6-5 31.3-9.5 47-13.7-1.8-.2-3.5-.2-5.3-.2h-16c5.1-1.8 10.3-3.5 15.4-5.3C228.6 16.4 260.1 6.9 292.1 0c-52.3 5.7-103.8 18.8-154 34.5-4.9-2.7-11.7-4.8-20.8-4.8-12.5 0-21.8 4.1-28.6 10.9-3 3-6.2 7.5-8.4 13.2-15.6 5.9-30.8 12.6-45.2 20.9C24.7 80.9 14.7 88 7.2 97.5.4 105.9-3.9 119 5.3 127.6c7.7 7.2 18.6 7.8 28.2 10.1-7.6-1.8-19.2-10.2-18.3-19 .1-.9.3-1.7.6-2.6 1.1 1.4 2.3 2.7 3.5 3.9 8.3 8.2 21.5 15.1 39 15.1 5.7 0 10.7-.9 18.9-3.6l-1.3 1.4h106.8V99.4h17.6c7.8-2.9 15.6-5.7 23.4-8.4l.4-.4c2.3-2.3 4.1-4.7 5.4-7.2-22.5 5.5-44.9 11.6-67.1 18.9 22.8-9.6 46-17.8 69.4-25.1.4-1.5.7-3.1.9-4.6-.6.1-1.1.3-1.6.4-25 6-50 12.4-74.7 20.2z"/><path class="st0" d="M218.4 37c-14.1 2.9-28.2 6-42 9.2-6.6 1.6-13.3 3.2-19.9 4.8v6.1c21.1-7.1 42.4-13.4 63.7-19-.6-.4-1.2-.8-1.8-1.1zM232.1 55.8c-.2-.8-.4-1.6-.7-2.5-9 2-18 4.1-26.9 6.1.6 1.3.9 2.8 1.1 4.1 8.8-2.7 17.6-5.3 26.5-7.7zM217.4 66.4c-4 .9-7.9 1.9-11.9 2.9-.3 2-1.1 4.2-3.1 5.9-.4.4-.8.7-1.3 1 10.6-3.5 21.3-6.8 32-10v-.5c0-.9 0-1.9-.1-2.8-5.2 1-10.5 2.3-15.6 3.5zM182.6 78.3V75c-8.7 2.3-17.5 4.7-26.1 7.3v10.2c12.8-5.2 25.8-10 38.9-14.5-1.5.2-2.9.3-4 .3h-8.8zM199.4 54.6c9.6-2.9 19.1-5.6 28.7-8.2l-1.2-1.8c-12.4 2.7-24.7 5.5-36.8 8.3-.4.1-.7.2-1.1.3h2.5c2.2 0 5.2.2 7.9 1.4zM80.9 40.4v-4.9c-10.9-4.4-18.8-5.1-23.6-5.1-15.7 0-29.2 6.7-38.1 15.7-8.1 8.2-13.9 19.9-15 32.5C9.6 74 15.7 70 21.8 66.4c18.6-10.9 38.7-18.9 59.1-26z"/><path class="st0" d="M201.1 76.1c-1.9.6-3.9 1.3-5.8 1.9 1.9-.3 4-.8 5.8-1.9z"/></g></svg>