<svg version="1.1" id="Layer_1" xmlns="http://www.w3.org/2000/svg" x="0" y="0" viewBox="0 0 65.5 65.5" style="enable-background:new 0 0 65.5 65.5" xml:space="preserve"><style>.st1{fill:#fff}</style><path d="M0 65.5h65.5V0H0v65.5z" style="fill:#0017bb"/><path id="_x3C_Path_x3E__e" class="st1" d="M51.8 48.1h4.3v-1.6h-4.3v-1.9h4.9V43h-6.6v8.8h6.6v-1.6h-4.9z"/><path id="_x3C_Path_x3E__m" class="st1" d="M43.9 46.9 41.4 43h-1.8v8.8h1.7V46l2.5 3.7h.2l2.5-3.7v5.8h1.7V43h-1.8z"/><path id="_x3C_Compound_Path_x3E__r" class="st1" d="M33.8 45.8c0-.8-.3-1.4-.7-1.9-.6-.6-1.5-.9-2.5-.9h-3.9v8.8h1.8v-3H30l2.1 3h2.1l-2.3-3.3c1.2-.4 1.9-1.4 1.9-2.7zm-3.4 1.4h-2.1v-2.6h2c1.1 0 1.6.5 1.6 1.3.1.8-.5 1.3-1.5 1.3z"/><path id="_x3C_Compound_Path_x3E__o" class="st1" d="M20.7 42.8c-2.6 0-4.6 2-4.6 4.5 0 2.6 2 4.5 4.6 4.5 2.6 0 4.6-2 4.6-4.6 0-2.4-2-4.4-4.6-4.4zm2.7 4.6c0 1.6-1.2 2.9-2.7 2.9-1.6 0-2.8-1.2-2.8-2.9 0-1.6 1.2-2.9 2.7-2.9 1.7 0 2.8 1.2 2.8 2.9z"/><path id="_x3C_Path_x3E__f" class="st1" d="M8.7 51.8h1.7v-3.5h4.3v-1.6h-4.3v-2.1h4.9V43H8.7z"/><path id="_x3C_Path_x3E__e_1_" class="st1" d="M48.8 33.9h7V32h-7v-3.9h7.8v-1.9h-9.8v13.6h9.9V38h-7.9z"/><path id="_x3C_Path_x3E__u" class="st1" d="M43.9 34v-7.7h-2v7.8c0 2.6-1.3 4.1-3.6 4.1s-3.7-1.5-3.7-4.2v-7.7h-2v7.8c0 3.7 2.1 5.9 5.6 5.9 3.6 0 5.7-2.2 5.7-6z"/><path id="_x3C_Path_x3E__l" class="st1" d="M21.9 26.2v13.6h9.2v-1.9h-7.2V26.2z"/><path id="_x3C_Compound_Path_x3E__b" class="st1" d="M19.5 36c0-1.5-.8-2.6-2.4-3.2.8-.5 1.7-1.4 1.7-3 0-.9-.3-1.6-.9-2.3-.8-.8-2-1.2-3.5-1.2H8.7v13.6h6c2.9-.1 4.8-1.6 4.8-3.9zm-8.9-7.9h3.7c1.6 0 2.6.7 2.6 1.9 0 1.3-1 2.1-2.7 2.1h-3.5v-4zm0 5.8h3.8c1.4 0 3.2.3 3.2 2 0 1.3-1.1 2.1-2.9 2.1h-4.1v-4.1z"/><path id="_x3C_Path_x3E__g" class="st1" d="M52.5 17.8v1.7h2.4v1.6c-.6.4-1.3.6-2.1.6-1.8 0-3-1.3-3-3.2 0-1.7 1.3-3.2 2.9-3.2 1.2 0 1.8.4 2.5 1l.1.1 1.2-1.4-.1-.1c-1.1-.9-2.1-1.3-3.7-1.3-2.8 0-4.9 2.2-4.9 4.9 0 2.9 2 4.9 5 4.9 1.8 0 3.2-.8 4-1.5v-4.1h-4.3z"/><path id="_x3C_Path_x3E__n" class="st1" d="m39.5 16.9 5 6.4H46v-9.6h-1.8v6.2l-4.9-6.2h-1.7v9.6h1.9z"/><path id="_x3C_Path_x3E__i" class="st1" d="M33.5 13.7h1.9v9.6h-1.9z"/><path id="_x3C_Path_x3E__y" class="st1" d="M26.6 23.3h1.9v-3.8l3.9-5.8h-2.2l-2.6 4-2.5-4h-2.3l3.8 5.8z"/><path id="_x3C_Path_x3E__l_1_" class="st1" d="M24.2 21.5h-4.9v-7.8h-1.9v9.6h6.8z"/><path id="_x3C_Path_x3E__f_1_" class="st1" d="M10.6 19.5h4.6v-1.8h-4.6v-2.2h5.2v-1.8H8.7v9.6h1.9z"/></svg>