<svg version="1.1" id="Layer_1" xmlns="http://www.w3.org/2000/svg" x="0" y="0" viewBox="0 0 425.8 110" style="enable-background:new 0 0 425.8 110" xml:space="preserve"><style>.st0{fill:#fff}</style><path class="st0" d="M253 75.4V63.6s-13.6 2.7-32.4 2.7c-9.1 0-15.1-1.1-18.3-1.4V51.2c3.6-.4 9.7-1.4 18.5-1.4 18.2.1 32.2 2.8 32.2 2.8V40.8s-12.5-3.1-32.2-3.1c-19.9 0-32.2 3.1-32.2 3.1v34.5s12.6 3.1 32.2 3.1c19.5 0 32.2-3 32.2-3m-93.8 2.3h13.7V38.4h-13.7v24.4S149 55.2 134 47.5c-13.1-6.8-24.7-9.1-24.7-9.1v39.2H123v-21c3.3 1.3 6.8 2.8 11 4.9 15 7.9 25.2 16.2 25.2 16.2M35 61.3c-3.2-3-24.5-23.6-24.5-23.6L0 47.2l35 31.5 35-31.5-10.4-9.6c0 .1-21.4 20.7-24.6 23.7m44.4 16.4h14.1V38.4H79.4v39.3zm203-39.3h-14.1v39.3h14.1V38.4zM379.5 32.3c3 0 5.5-2.5 5.5-5.5V5.5c0-3-2.5-5.5-5.5-5.5h-21.3c-3 0-5.5 2.5-5.5 5.5v16.3c0 5.1-3.9 9.4-5.5 11.2s-6.2 5.4-13.3 5.4h-19.6v32.4h32.4V51.2c0-7.2 3.6-11.7 5.4-13.3 1.7-1.7 6.1-5.5 11.2-5.5l16.2-.1zm40.8 10.1c-3.4-3.4-8-5.4-13.2-5.4-10.6 0-19.1 8.7-19.1 19 0 1.9.8 5.5.8 7 0 8.1-6.6 14.7-14.7 14.7h-15.8c-3 0-5.5 2.5-5.5 5.5v21.3c0 3 2.5 5.5 5.5 5.5h21.3c3 0 5.5-2.5 5.5-5.5V88.7c0-8.1 6.6-14.7 14.7-14.7 1.5 0 5.1.8 7 .8 10.4 0 19-8.5 19-19.1-.1-5-2.1-9.8-5.5-13.3"/></svg>