<svg xmlns="http://www.w3.org/2000/svg" viewBox="0 0 701.5 108.625" xml:space="preserve"><path d="M697.796 72.201c-3.217 8.733-9.255 14.983-18.424 16.524-7.073 1.188-14.641 1.567-21.672.399-12.629-2.098-19.829-10.991-21.409-23.222-1.087-8.415-.88-17.321.62-25.671 2.281-12.696 11.351-20.075 24.227-21.514 4.093-.458 8.319-.549 12.406-.098 14.718 1.623 23.042 9.419 26.116 23.938.232 1.097.839 4.36.839 12.027s-1.568 14.537-2.703 17.617zm-8.189-28.99c-1.727-8.316-6.74-13.74-15.269-14.932-4.374-.611-8.986-.555-13.359.09-7.617 1.124-12.463 5.823-14.451 13.318-2.31 8.706-2.339 17.439.236 26.067 1.956 6.553 6.29 10.946 13.153 12.206 22.654 4.159 30.376-6.081 30.797-23.384.016-.665-.335-9.648-1.107-13.365zM544.419 43.834c0-6.664.019-13.328-.01-19.991-.011-2.611-.198-5.057 3.704-4.944 3.429.1 5.99.891 6.214 4.81.133 2.325.051 4.663.059 6.995.036 10.828-.028 21.657.141 32.483.103 6.636 1.824 12.844 8.48 15.753 7.517 3.285 15.66 3.824 22.329-1.284 3.255-2.493 5.961-7.618 6.237-11.731.914-13.601.582-27.285.786-40.937.072-4.822 1.779-6.568 6.346-5.869 1.336.205 3.408 2.228 3.42 3.435.138 13.988.498 28.011-.298 41.962-1 17.541-13.012 27.255-30.636 25.907-16.975-1.298-26.002-10.564-26.627-27.601-.232-6.322-.037-12.659-.037-18.989l-.108.001zM481.746 28.761s-13.717-.167-20.192.064c-3.75.134-3.929-1.904-3.884-4.704.044-2.795-.26-5.256 3.919-5.219 16.664.147 33.33.15 49.994-.012 3.965-.039 4.148 2.014 4.17 5.024.022 3.074-.281 5.085-4.223 4.919-6.442-.272-19.842-.073-19.842-.073s-.018 43.523.015 56.355c.006 2.471-1.161 4.739-4.755 4.623-3.23-.104-5.151-.089-5.151-4.768-.145-2.158-.051-56.209-.051-56.209zM417.415 60.802c5.305 8.131 10.357 15.755 15.243 23.484.778 1.231 1.597 3.229.995 4.314s-3.381 1.009-4.588.584c-4.14-1.459-6.488-3.803-8.925-6.504-2.974-3.296-4.999-7.447-7.447-11.219-5.299-8.166-4.952-9.866-12.691-9.866l-8.548-.005s-.019 16.053.009 22.995c.012 3.093-.838 5.065-5.298 5.065-3.539 0-4.782-1.135-4.717-5.846.264-18.828.081-36.662.121-55.493.014-6.79 2.532-9.15 9.409-9.112 7.653.042 15.353-.307 22.944.484 10.066 1.05 16.296 6.953 17.707 15.545 1.838 11.19-2.107 19.597-11.393 24.266-.725.363-1.472.683-2.821 1.308zm-25.68-8.477s14.824.431 21.973-.534c6.057-.817 8.27-4.467 8.295-11.087.026-6.654-2.137-10.576-8.111-11.236-7.295-.806-22.157-.192-22.157-.192v23.049zM346.476 82.906c-.031 2.858.468 6.921-4.993 6.867-5.168-.051-5.006-2.846-4.977-7.091.116-16.96.247-56.223.001-58.86-.341-3.656 1.448-5.019 5.235-4.974 3.671.044 4.962.801 4.855 4.997 0 0-.018 49.418-.121 59.061zM245.235 19.879c7.018-1.773 10.048-.323 12.315 5.625 5.448 14.294 18.546 48.281 18.546 48.281s12.458-32.692 18.589-48.583c2.268-5.88 5.595-7.31 12.174-5.155-.387 1.353-16.373 43.504-23.879 63.241-1.272 3.344-2.872 6.222-6.801 6.296-3.913.074-5.717-2.632-7.005-6.017-7.564-19.891-23.514-62.097-23.939-63.688zM194.081 102.36V6.188l.869-.006v96.174l-.869.004z"/><path d="M193.633 6.188h1.417v96.168h-1.417zM119.734 5.507a8.213 8.213 0 0 1 6.893 12.669L74.611 98.755a8.097 8.097 0 0 1-6.803 3.706h-.064a8.213 8.213 0 0 1-6.831-3.653L7.149 18.282a8.213 8.213 0 0 1 13.662-9.121l44.481 66.621a2.741 2.741 0 0 0 2.297 1.229 2.74 2.74 0 0 0 2.321-1.264l42.915-66.479a8.208 8.208 0 0 1 6.909-3.761m0-5a13.167 13.167 0 0 0-11.109 6.049L67.558 70.171 24.97 6.385A13.196 13.196 0 0 0 13.972.508c-2.614 0-5.149.769-7.328 2.224-6.06 4.046-7.698 12.267-3.653 18.327l53.764 80.525a13.188 13.188 0 0 0 10.989 5.877h.064c4.467 0 8.581-2.241 11.003-5.994l52.016-80.579a13.129 13.129 0 0 0 1.816-9.949 13.128 13.128 0 0 0-5.751-8.319 13.17 13.17 0 0 0-7.158-2.113z"/><path d="M133.234 5.507a8.213 8.213 0 0 1 6.893 12.669L88.111 98.755a8.097 8.097 0 0 1-6.803 3.706h-.064a8.213 8.213 0 0 1-6.831-3.653L20.649 18.282A8.214 8.214 0 0 1 34.31 9.16l44.481 66.621a2.741 2.741 0 0 0 2.297 1.229 2.74 2.74 0 0 0 2.321-1.264l42.915-66.479a8.212 8.212 0 0 1 6.91-3.76m0-5a13.167 13.167 0 0 0-11.109 6.049L81.058 70.171 38.47 6.385A13.196 13.196 0 0 0 27.472.508c-2.614 0-5.149.769-7.328 2.224-6.06 4.046-7.698 12.267-3.653 18.327l53.764 80.525a13.188 13.188 0 0 0 10.989 5.877h.064c4.467 0 8.581-2.241 11.003-5.994l52.016-80.579a13.129 13.129 0 0 0 1.816-9.949 13.128 13.128 0 0 0-5.751-8.319 13.17 13.17 0 0 0-7.158-2.113z"/></svg>