<svg version="1.1" id="Calque_1" xmlns="http://www.w3.org/2000/svg" x="0" y="0" viewBox="0 0 802.7 175" style="enable-background:new 0 0 802.7 175" xml:space="preserve"><style>.st0{fill:#fff}</style><path class="st0" d="M627 71.6c-.2-3.2-3-5.8-6.3-5.8l-63-.1c-2.7 0-4.9 2.2-4.9 4.9l-.1 21.4c0 1.3.5 2.6 1.5 3.5.9.9 2.2 1.5 3.5 1.5h30.7c-2.8 10.1-11.7 22.8-35.2 22.8-22.9 0-38.9-17.4-38.9-42.3 0-24.3 17.1-41.9 40.7-41.9 16 0 23.9 3.7 34.4 11.3 3.1 2.2 5.8 2.3 8.1.2l16.8-16.8c2.5-2.5 2.5-5.6.1-8.2C608.3 15.7 589.3 0 554.5 0c-45.3 0-78.2 32.6-78.2 77.6 0 22.8 8.3 43 23.4 57 14 13 34 20.5 54.8 20.5 40 0 72.8-32.3 72.8-76.7-.1-2.3-.2-4.6-.3-6.8M348.9 77.5c0 24.6-14.1 39-38.6 39h-25.2v-78h25.2c24.5 0 38.6 14.3 38.6 39m-38.3-74H253c-2.6 0-4.7 2.1-4.7 4.6l-.1 138.6c0 1.2.5 2.4 1.4 3.3.9.9 2 1.4 3.3 1.4h57.7c45.7 0 76.4-29.9 76.4-74 0-44-30.7-73.9-76.4-73.9M143.1 0C97.5 0 69.2 29.3 69.2 76.6l-.1 70.2c0 2.6 2.1 4.6 4.6 4.7h27.5c2.6 0 4.7-2.1 4.7-4.7V76.6c0-25.7 13.6-40.4 37.2-40.4s37.2 14.7 37.2 40.4l-.1 70.2c0 1.2.5 2.4 1.4 3.3.9.9 2 1.4 3.3 1.4h27.5c2.6 0 4.6-2.1 4.6-4.6V76.7C217 29.3 188.7 0 143.1 0M445.5 151.4h-27.1c-2.7 0-5-2.2-5-5V8.4c0-2.7 2.2-5 5-5h27.1c2.7 0 5 2.2 5 5v138c-.1 2.8-2.3 5-5 5M32.2 151.4H5c-2.7 0-5-2.2-5-5V8.4c0-2.7 2.2-5 5-5h27.1c2.7 0 5 2.2 5 5v138c0 2.8-2.2 5-4.9 5M726.4 122.2c-22.7 0-41-19.4-41-43.3s18.4-43.3 41-43.3c22.7 0 41 19.4 41 43.3s-18.3 43.3-41 43.3m0-122.2c-43.9 0-77 33.7-77 76.6 0 39 27.3 63 74.3 97.5 1.6 1.2 3.9 1.2 5.5.1 42.8-29.9 74.3-58.5 74.3-97.6 0-43.1-33.2-76.6-77.1-76.6"/></svg>